<?xml version="1.0" encoding="utf-8" standalone="no"?>
<!DOCTYPE svg PUBLIC "-//W3C//DTD SVG 1.1//EN"
  "http://www.w3.org/Graphics/SVG/1.1/DTD/svg11.dtd">
<svg xmlns:xlink="http://www.w3.org/1999/xlink" width="494.344167pt" height="309.961045pt" viewBox="0 0 494.344167 309.961045" xmlns="http://www.w3.org/2000/svg" version="1.1">
 <metadata>
  <rdf:RDF xmlns:dc="http://purl.org/dc/elements/1.1/" xmlns:cc="http://creativecommons.org/ns#" xmlns:rdf="http://www.w3.org/1999/02/22-rdf-syntax-ns#">
   <cc:Work>
    <dc:type rdf:resource="http://purl.org/dc/dcmitype/StillImage"/>
    <dc:date>2025-06-02T13:07:33.507405</dc:date>
    <dc:format>image/svg+xml</dc:format>
    <dc:creator>
     <cc:Agent>
      <dc:title>Matplotlib v3.10.1, https://matplotlib.org/</dc:title>
     </cc:Agent>
    </dc:creator>
   </cc:Work>
  </rdf:RDF>
 </metadata>
 <defs>
  <style type="text/css">*{stroke-linejoin: round; stroke-linecap: butt}</style>
 </defs>
 <g id="figure_1">
  <g id="patch_1">
   <path d="M 0 309.961045 
L 494.344167 309.961045 
L 494.344167 0 
L 0 0 
z
" style="fill: #ffffff"/>
  </g>
  <g id="axes_1">
   <g id="patch_2">
    <path d="M 64.578165 219.244495 
L 487.144167 219.244495 
L 487.144167 26.8475 
L 64.578165 26.8475 
z
" style="fill: #ffffff"/>
   </g>
   <g id="matplotlib.axis_1">
    <g id="xtick_1">
     <g id="line2d_1">
      <path d="M 98.424255 219.244495 
L 98.424255 26.8475 
" clip-path="url(#p2389ba098e)" style="fill: none; stroke: #cccccc; stroke-width: 0.8; stroke-linecap: round"/>
     </g>
     <g id="line2d_2"/>
     <g id="text_1">
      <!-- scene_bridge_city -->
      <g style="fill: #262626" transform="translate(11.099495 274.307645) rotate(-27) scale(0.12 -0.12)">
       <defs>
        <path id="ArialMT-73" d="M 197 991 
L 753 1078 
Q 800 744 1014 566 
Q 1228 388 1613 388 
Q 2000 388 2187 545 
Q 2375 703 2375 916 
Q 2375 1106 2209 1216 
Q 2094 1291 1634 1406 
Q 1016 1563 777 1677 
Q 538 1791 414 1992 
Q 291 2194 291 2438 
Q 291 2659 392 2848 
Q 494 3038 669 3163 
Q 800 3259 1026 3326 
Q 1253 3394 1513 3394 
Q 1903 3394 2198 3281 
Q 2494 3169 2634 2976 
Q 2775 2784 2828 2463 
L 2278 2388 
Q 2241 2644 2061 2787 
Q 1881 2931 1553 2931 
Q 1166 2931 1000 2803 
Q 834 2675 834 2503 
Q 834 2394 903 2306 
Q 972 2216 1119 2156 
Q 1203 2125 1616 2013 
Q 2213 1853 2448 1751 
Q 2684 1650 2818 1456 
Q 2953 1263 2953 975 
Q 2953 694 2789 445 
Q 2625 197 2315 61 
Q 2006 -75 1616 -75 
Q 969 -75 630 194 
Q 291 463 197 991 
z
" transform="scale(0.015625)"/>
        <path id="ArialMT-63" d="M 2588 1216 
L 3141 1144 
Q 3050 572 2676 248 
Q 2303 -75 1759 -75 
Q 1078 -75 664 370 
Q 250 816 250 1647 
Q 250 2184 428 2587 
Q 606 2991 970 3192 
Q 1334 3394 1763 3394 
Q 2303 3394 2647 3120 
Q 2991 2847 3088 2344 
L 2541 2259 
Q 2463 2594 2264 2762 
Q 2066 2931 1784 2931 
Q 1359 2931 1093 2626 
Q 828 2322 828 1663 
Q 828 994 1084 691 
Q 1341 388 1753 388 
Q 2084 388 2306 591 
Q 2528 794 2588 1216 
z
" transform="scale(0.015625)"/>
        <path id="ArialMT-65" d="M 2694 1069 
L 3275 997 
Q 3138 488 2766 206 
Q 2394 -75 1816 -75 
Q 1088 -75 661 373 
Q 234 822 234 1631 
Q 234 2469 665 2931 
Q 1097 3394 1784 3394 
Q 2450 3394 2872 2941 
Q 3294 2488 3294 1666 
Q 3294 1616 3291 1516 
L 816 1516 
Q 847 969 1125 678 
Q 1403 388 1819 388 
Q 2128 388 2347 550 
Q 2566 713 2694 1069 
z
M 847 1978 
L 2700 1978 
Q 2663 2397 2488 2606 
Q 2219 2931 1791 2931 
Q 1403 2931 1139 2672 
Q 875 2413 847 1978 
z
" transform="scale(0.015625)"/>
        <path id="ArialMT-6e" d="M 422 0 
L 422 3319 
L 928 3319 
L 928 2847 
Q 1294 3394 1984 3394 
Q 2284 3394 2536 3286 
Q 2788 3178 2913 3003 
Q 3038 2828 3088 2588 
Q 3119 2431 3119 2041 
L 3119 0 
L 2556 0 
L 2556 2019 
Q 2556 2363 2490 2533 
Q 2425 2703 2258 2804 
Q 2091 2906 1866 2906 
Q 1506 2906 1245 2678 
Q 984 2450 984 1813 
L 984 0 
L 422 0 
z
" transform="scale(0.015625)"/>
        <path id="ArialMT-5f" d="M -97 -1272 
L -97 -866 
L 3631 -866 
L 3631 -1272 
L -97 -1272 
z
" transform="scale(0.015625)"/>
        <path id="ArialMT-62" d="M 941 0 
L 419 0 
L 419 4581 
L 981 4581 
L 981 2947 
Q 1338 3394 1891 3394 
Q 2197 3394 2470 3270 
Q 2744 3147 2920 2923 
Q 3097 2700 3197 2384 
Q 3297 2069 3297 1709 
Q 3297 856 2875 390 
Q 2453 -75 1863 -75 
Q 1275 -75 941 416 
L 941 0 
z
M 934 1684 
Q 934 1088 1097 822 
Q 1363 388 1816 388 
Q 2184 388 2453 708 
Q 2722 1028 2722 1663 
Q 2722 2313 2464 2622 
Q 2206 2931 1841 2931 
Q 1472 2931 1203 2611 
Q 934 2291 934 1684 
z
" transform="scale(0.015625)"/>
        <path id="ArialMT-72" d="M 416 0 
L 416 3319 
L 922 3319 
L 922 2816 
Q 1116 3169 1280 3281 
Q 1444 3394 1641 3394 
Q 1925 3394 2219 3213 
L 2025 2691 
Q 1819 2813 1613 2813 
Q 1428 2813 1281 2702 
Q 1134 2591 1072 2394 
Q 978 2094 978 1738 
L 978 0 
L 416 0 
z
" transform="scale(0.015625)"/>
        <path id="ArialMT-69" d="M 425 3934 
L 425 4581 
L 988 4581 
L 988 3934 
L 425 3934 
z
M 425 0 
L 425 3319 
L 988 3319 
L 988 0 
L 425 0 
z
" transform="scale(0.015625)"/>
        <path id="ArialMT-64" d="M 2575 0 
L 2575 419 
Q 2259 -75 1647 -75 
Q 1250 -75 917 144 
Q 584 363 401 755 
Q 219 1147 219 1656 
Q 219 2153 384 2558 
Q 550 2963 881 3178 
Q 1213 3394 1622 3394 
Q 1922 3394 2156 3267 
Q 2391 3141 2538 2938 
L 2538 4581 
L 3097 4581 
L 3097 0 
L 2575 0 
z
M 797 1656 
Q 797 1019 1065 703 
Q 1334 388 1700 388 
Q 2069 388 2326 689 
Q 2584 991 2584 1609 
Q 2584 2291 2321 2609 
Q 2059 2928 1675 2928 
Q 1300 2928 1048 2622 
Q 797 2316 797 1656 
z
" transform="scale(0.015625)"/>
        <path id="ArialMT-67" d="M 319 -275 
L 866 -356 
Q 900 -609 1056 -725 
Q 1266 -881 1628 -881 
Q 2019 -881 2231 -725 
Q 2444 -569 2519 -288 
Q 2563 -116 2559 434 
Q 2191 0 1641 0 
Q 956 0 581 494 
Q 206 988 206 1678 
Q 206 2153 378 2554 
Q 550 2956 876 3175 
Q 1203 3394 1644 3394 
Q 2231 3394 2613 2919 
L 2613 3319 
L 3131 3319 
L 3131 450 
Q 3131 -325 2973 -648 
Q 2816 -972 2473 -1159 
Q 2131 -1347 1631 -1347 
Q 1038 -1347 672 -1080 
Q 306 -813 319 -275 
z
M 784 1719 
Q 784 1066 1043 766 
Q 1303 466 1694 466 
Q 2081 466 2343 764 
Q 2606 1063 2606 1700 
Q 2606 2309 2336 2618 
Q 2066 2928 1684 2928 
Q 1309 2928 1046 2623 
Q 784 2319 784 1719 
z
" transform="scale(0.015625)"/>
        <path id="ArialMT-74" d="M 1650 503 
L 1731 6 
Q 1494 -44 1306 -44 
Q 1000 -44 831 53 
Q 663 150 594 308 
Q 525 466 525 972 
L 525 2881 
L 113 2881 
L 113 3319 
L 525 3319 
L 525 4141 
L 1084 4478 
L 1084 3319 
L 1650 3319 
L 1650 2881 
L 1084 2881 
L 1084 941 
Q 1084 700 1114 631 
Q 1144 563 1211 522 
Q 1278 481 1403 481 
Q 1497 481 1650 503 
z
" transform="scale(0.015625)"/>
        <path id="ArialMT-79" d="M 397 -1278 
L 334 -750 
Q 519 -800 656 -800 
Q 844 -800 956 -737 
Q 1069 -675 1141 -563 
Q 1194 -478 1313 -144 
Q 1328 -97 1363 -6 
L 103 3319 
L 709 3319 
L 1400 1397 
Q 1534 1031 1641 628 
Q 1738 1016 1872 1384 
L 2581 3319 
L 3144 3319 
L 1881 -56 
Q 1678 -603 1566 -809 
Q 1416 -1088 1222 -1217 
Q 1028 -1347 759 -1347 
Q 597 -1347 397 -1278 
z
" transform="scale(0.015625)"/>
       </defs>
       <use xlink:href="#ArialMT-73"/>
       <use xlink:href="#ArialMT-63" transform="translate(50 0)"/>
       <use xlink:href="#ArialMT-65" transform="translate(100 0)"/>
       <use xlink:href="#ArialMT-6e" transform="translate(155.615234 0)"/>
       <use xlink:href="#ArialMT-65" transform="translate(211.230469 0)"/>
       <use xlink:href="#ArialMT-5f" transform="translate(266.845703 0)"/>
       <use xlink:href="#ArialMT-62" transform="translate(322.460938 0)"/>
       <use xlink:href="#ArialMT-72" transform="translate(378.076172 0)"/>
       <use xlink:href="#ArialMT-69" transform="translate(411.376953 0)"/>
       <use xlink:href="#ArialMT-64" transform="translate(433.59375 0)"/>
       <use xlink:href="#ArialMT-67" transform="translate(489.208984 0)"/>
       <use xlink:href="#ArialMT-65" transform="translate(544.824219 0)"/>
       <use xlink:href="#ArialMT-5f" transform="translate(600.439453 0)"/>
       <use xlink:href="#ArialMT-63" transform="translate(656.054688 0)"/>
       <use xlink:href="#ArialMT-69" transform="translate(706.054688 0)"/>
       <use xlink:href="#ArialMT-74" transform="translate(728.271484 0)"/>
       <use xlink:href="#ArialMT-79" transform="translate(756.054688 0)"/>
      </g>
     </g>
    </g>
    <g id="xtick_2">
     <g id="line2d_3">
      <path d="M 142.783483 219.244495 
L 142.783483 26.8475 
" clip-path="url(#p2389ba098e)" style="fill: none; stroke: #cccccc; stroke-width: 0.8; stroke-linecap: round"/>
     </g>
     <g id="line2d_4"/>
     <g id="text_2">
      <!-- scene_clear_city -->
      <g style="fill: #262626" transform="translate(62.004279 270.972518) rotate(-27) scale(0.12 -0.12)">
       <defs>
        <path id="ArialMT-6c" d="M 409 0 
L 409 4581 
L 972 4581 
L 972 0 
L 409 0 
z
" transform="scale(0.015625)"/>
        <path id="ArialMT-61" d="M 2588 409 
Q 2275 144 1986 34 
Q 1697 -75 1366 -75 
Q 819 -75 525 192 
Q 231 459 231 875 
Q 231 1119 342 1320 
Q 453 1522 633 1644 
Q 813 1766 1038 1828 
Q 1203 1872 1538 1913 
Q 2219 1994 2541 2106 
Q 2544 2222 2544 2253 
Q 2544 2597 2384 2738 
Q 2169 2928 1744 2928 
Q 1347 2928 1158 2789 
Q 969 2650 878 2297 
L 328 2372 
Q 403 2725 575 2942 
Q 747 3159 1072 3276 
Q 1397 3394 1825 3394 
Q 2250 3394 2515 3294 
Q 2781 3194 2906 3042 
Q 3031 2891 3081 2659 
Q 3109 2516 3109 2141 
L 3109 1391 
Q 3109 606 3145 398 
Q 3181 191 3288 0 
L 2700 0 
Q 2613 175 2588 409 
z
M 2541 1666 
Q 2234 1541 1622 1453 
Q 1275 1403 1131 1340 
Q 988 1278 909 1158 
Q 831 1038 831 891 
Q 831 666 1001 516 
Q 1172 366 1500 366 
Q 1825 366 2078 508 
Q 2331 650 2450 897 
Q 2541 1088 2541 1459 
L 2541 1666 
z
" transform="scale(0.015625)"/>
       </defs>
       <use xlink:href="#ArialMT-73"/>
       <use xlink:href="#ArialMT-63" transform="translate(50 0)"/>
       <use xlink:href="#ArialMT-65" transform="translate(100 0)"/>
       <use xlink:href="#ArialMT-6e" transform="translate(155.615234 0)"/>
       <use xlink:href="#ArialMT-65" transform="translate(211.230469 0)"/>
       <use xlink:href="#ArialMT-5f" transform="translate(266.845703 0)"/>
       <use xlink:href="#ArialMT-63" transform="translate(322.460938 0)"/>
       <use xlink:href="#ArialMT-6c" transform="translate(372.460938 0)"/>
       <use xlink:href="#ArialMT-65" transform="translate(394.677734 0)"/>
       <use xlink:href="#ArialMT-61" transform="translate(450.292969 0)"/>
       <use xlink:href="#ArialMT-72" transform="translate(505.908203 0)"/>
       <use xlink:href="#ArialMT-5f" transform="translate(539.208984 0)"/>
       <use xlink:href="#ArialMT-63" transform="translate(594.824219 0)"/>
       <use xlink:href="#ArialMT-69" transform="translate(644.824219 0)"/>
       <use xlink:href="#ArialMT-74" transform="translate(667.041016 0)"/>
       <use xlink:href="#ArialMT-79" transform="translate(694.824219 0)"/>
      </g>
     </g>
    </g>
    <g id="xtick_3">
     <g id="line2d_5">
      <path d="M 187.142711 219.244495 
L 187.142711 26.8475 
" clip-path="url(#p2389ba098e)" style="fill: none; stroke: #cccccc; stroke-width: 0.8; stroke-linecap: round"/>
     </g>
     <g id="line2d_6"/>
     <g id="text_3">
      <!-- scene_construction -->
      <g style="fill: #262626" transform="translate(93.941006 277.334627) rotate(-27) scale(0.12 -0.12)">
       <defs>
        <path id="ArialMT-6f" d="M 213 1659 
Q 213 2581 725 3025 
Q 1153 3394 1769 3394 
Q 2453 3394 2887 2945 
Q 3322 2497 3322 1706 
Q 3322 1066 3130 698 
Q 2938 331 2570 128 
Q 2203 -75 1769 -75 
Q 1072 -75 642 372 
Q 213 819 213 1659 
z
M 791 1659 
Q 791 1022 1069 705 
Q 1347 388 1769 388 
Q 2188 388 2466 706 
Q 2744 1025 2744 1678 
Q 2744 2294 2464 2611 
Q 2184 2928 1769 2928 
Q 1347 2928 1069 2612 
Q 791 2297 791 1659 
z
" transform="scale(0.015625)"/>
        <path id="ArialMT-75" d="M 2597 0 
L 2597 488 
Q 2209 -75 1544 -75 
Q 1250 -75 995 37 
Q 741 150 617 320 
Q 494 491 444 738 
Q 409 903 409 1263 
L 409 3319 
L 972 3319 
L 972 1478 
Q 972 1038 1006 884 
Q 1059 663 1231 536 
Q 1403 409 1656 409 
Q 1909 409 2131 539 
Q 2353 669 2445 892 
Q 2538 1116 2538 1541 
L 2538 3319 
L 3100 3319 
L 3100 0 
L 2597 0 
z
" transform="scale(0.015625)"/>
       </defs>
       <use xlink:href="#ArialMT-73"/>
       <use xlink:href="#ArialMT-63" transform="translate(50 0)"/>
       <use xlink:href="#ArialMT-65" transform="translate(100 0)"/>
       <use xlink:href="#ArialMT-6e" transform="translate(155.615234 0)"/>
       <use xlink:href="#ArialMT-65" transform="translate(211.230469 0)"/>
       <use xlink:href="#ArialMT-5f" transform="translate(266.845703 0)"/>
       <use xlink:href="#ArialMT-63" transform="translate(322.460938 0)"/>
       <use xlink:href="#ArialMT-6f" transform="translate(372.460938 0)"/>
       <use xlink:href="#ArialMT-6e" transform="translate(428.076172 0)"/>
       <use xlink:href="#ArialMT-73" transform="translate(483.691406 0)"/>
       <use xlink:href="#ArialMT-74" transform="translate(533.691406 0)"/>
       <use xlink:href="#ArialMT-72" transform="translate(561.474609 0)"/>
       <use xlink:href="#ArialMT-75" transform="translate(594.775391 0)"/>
       <use xlink:href="#ArialMT-63" transform="translate(650.390625 0)"/>
       <use xlink:href="#ArialMT-74" transform="translate(700.390625 0)"/>
       <use xlink:href="#ArialMT-69" transform="translate(728.173828 0)"/>
       <use xlink:href="#ArialMT-6f" transform="translate(750.390625 0)"/>
       <use xlink:href="#ArialMT-6e" transform="translate(806.005859 0)"/>
      </g>
     </g>
    </g>
    <g id="xtick_4">
     <g id="line2d_7">
      <path d="M 231.501938 219.244495 
L 231.501938 26.8475 
" clip-path="url(#p2389ba098e)" style="fill: none; stroke: #cccccc; stroke-width: 0.8; stroke-linecap: round"/>
     </g>
     <g id="line2d_8"/>
     <g id="text_4">
      <!-- scene_night_highway -->
      <g style="fill: #262626" transform="translate(127.524266 282.792728) rotate(-27) scale(0.12 -0.12)">
       <defs>
        <path id="ArialMT-68" d="M 422 0 
L 422 4581 
L 984 4581 
L 984 2938 
Q 1378 3394 1978 3394 
Q 2347 3394 2619 3248 
Q 2891 3103 3008 2847 
Q 3125 2591 3125 2103 
L 3125 0 
L 2563 0 
L 2563 2103 
Q 2563 2525 2380 2717 
Q 2197 2909 1863 2909 
Q 1613 2909 1392 2779 
Q 1172 2650 1078 2428 
Q 984 2206 984 1816 
L 984 0 
L 422 0 
z
" transform="scale(0.015625)"/>
        <path id="ArialMT-77" d="M 1034 0 
L 19 3319 
L 600 3319 
L 1128 1403 
L 1325 691 
Q 1338 744 1497 1375 
L 2025 3319 
L 2603 3319 
L 3100 1394 
L 3266 759 
L 3456 1400 
L 4025 3319 
L 4572 3319 
L 3534 0 
L 2950 0 
L 2422 1988 
L 2294 2553 
L 1622 0 
L 1034 0 
z
" transform="scale(0.015625)"/>
       </defs>
       <use xlink:href="#ArialMT-73"/>
       <use xlink:href="#ArialMT-63" transform="translate(50 0)"/>
       <use xlink:href="#ArialMT-65" transform="translate(100 0)"/>
       <use xlink:href="#ArialMT-6e" transform="translate(155.615234 0)"/>
       <use xlink:href="#ArialMT-65" transform="translate(211.230469 0)"/>
       <use xlink:href="#ArialMT-5f" transform="translate(266.845703 0)"/>
       <use xlink:href="#ArialMT-6e" transform="translate(322.460938 0)"/>
       <use xlink:href="#ArialMT-69" transform="translate(378.076172 0)"/>
       <use xlink:href="#ArialMT-67" transform="translate(400.292969 0)"/>
       <use xlink:href="#ArialMT-68" transform="translate(455.908203 0)"/>
       <use xlink:href="#ArialMT-74" transform="translate(511.523438 0)"/>
       <use xlink:href="#ArialMT-5f" transform="translate(539.306641 0)"/>
       <use xlink:href="#ArialMT-68" transform="translate(594.921875 0)"/>
       <use xlink:href="#ArialMT-69" transform="translate(650.537109 0)"/>
       <use xlink:href="#ArialMT-67" transform="translate(672.753906 0)"/>
       <use xlink:href="#ArialMT-68" transform="translate(728.369141 0)"/>
       <use xlink:href="#ArialMT-77" transform="translate(783.984375 0)"/>
       <use xlink:href="#ArialMT-61" transform="translate(856.201172 0)"/>
       <use xlink:href="#ArialMT-79" transform="translate(911.816406 0)"/>
      </g>
     </g>
    </g>
    <g id="xtick_5">
     <g id="line2d_9">
      <path d="M 275.861166 219.244495 
L 275.861166 26.8475 
" clip-path="url(#p2389ba098e)" style="fill: none; stroke: #cccccc; stroke-width: 0.8; stroke-linecap: round"/>
     </g>
     <g id="line2d_10"/>
     <g id="text_5">
      <!-- scene_overcast_city -->
      <g style="fill: #262626" transform="translate(177.849339 279.752978) rotate(-27) scale(0.12 -0.12)">
       <defs>
        <path id="ArialMT-76" d="M 1344 0 
L 81 3319 
L 675 3319 
L 1388 1331 
Q 1503 1009 1600 663 
Q 1675 925 1809 1294 
L 2547 3319 
L 3125 3319 
L 1869 0 
L 1344 0 
z
" transform="scale(0.015625)"/>
       </defs>
       <use xlink:href="#ArialMT-73"/>
       <use xlink:href="#ArialMT-63" transform="translate(50 0)"/>
       <use xlink:href="#ArialMT-65" transform="translate(100 0)"/>
       <use xlink:href="#ArialMT-6e" transform="translate(155.615234 0)"/>
       <use xlink:href="#ArialMT-65" transform="translate(211.230469 0)"/>
       <use xlink:href="#ArialMT-5f" transform="translate(266.845703 0)"/>
       <use xlink:href="#ArialMT-6f" transform="translate(322.460938 0)"/>
       <use xlink:href="#ArialMT-76" transform="translate(378.076172 0)"/>
       <use xlink:href="#ArialMT-65" transform="translate(428.076172 0)"/>
       <use xlink:href="#ArialMT-72" transform="translate(483.691406 0)"/>
       <use xlink:href="#ArialMT-63" transform="translate(516.992188 0)"/>
       <use xlink:href="#ArialMT-61" transform="translate(566.992188 0)"/>
       <use xlink:href="#ArialMT-73" transform="translate(622.607422 0)"/>
       <use xlink:href="#ArialMT-74" transform="translate(672.607422 0)"/>
       <use xlink:href="#ArialMT-5f" transform="translate(700.390625 0)"/>
       <use xlink:href="#ArialMT-63" transform="translate(756.005859 0)"/>
       <use xlink:href="#ArialMT-69" transform="translate(806.005859 0)"/>
       <use xlink:href="#ArialMT-74" transform="translate(828.222656 0)"/>
       <use xlink:href="#ArialMT-79" transform="translate(856.005859 0)"/>
      </g>
     </g>
    </g>
    <g id="xtick_6">
     <g id="line2d_11">
      <path d="M 320.220393 219.244495 
L 320.220393 26.8475 
" clip-path="url(#p2389ba098e)" style="fill: none; stroke: #cccccc; stroke-width: 0.8; stroke-linecap: round"/>
     </g>
     <g id="line2d_12"/>
     <g id="text_6">
      <!-- scene_rainy_highway -->
      <g style="fill: #262626" transform="translate(216.252745 282.78762) rotate(-27) scale(0.12 -0.12)">
       <use xlink:href="#ArialMT-73"/>
       <use xlink:href="#ArialMT-63" transform="translate(50 0)"/>
       <use xlink:href="#ArialMT-65" transform="translate(100 0)"/>
       <use xlink:href="#ArialMT-6e" transform="translate(155.615234 0)"/>
       <use xlink:href="#ArialMT-65" transform="translate(211.230469 0)"/>
       <use xlink:href="#ArialMT-5f" transform="translate(266.845703 0)"/>
       <use xlink:href="#ArialMT-72" transform="translate(322.460938 0)"/>
       <use xlink:href="#ArialMT-61" transform="translate(355.761719 0)"/>
       <use xlink:href="#ArialMT-69" transform="translate(411.376953 0)"/>
       <use xlink:href="#ArialMT-6e" transform="translate(433.59375 0)"/>
       <use xlink:href="#ArialMT-79" transform="translate(489.208984 0)"/>
       <use xlink:href="#ArialMT-5f" transform="translate(539.208984 0)"/>
       <use xlink:href="#ArialMT-68" transform="translate(594.824219 0)"/>
       <use xlink:href="#ArialMT-69" transform="translate(650.439453 0)"/>
       <use xlink:href="#ArialMT-67" transform="translate(672.65625 0)"/>
       <use xlink:href="#ArialMT-68" transform="translate(728.271484 0)"/>
       <use xlink:href="#ArialMT-77" transform="translate(783.886719 0)"/>
       <use xlink:href="#ArialMT-61" transform="translate(856.103516 0)"/>
       <use xlink:href="#ArialMT-79" transform="translate(911.71875 0)"/>
      </g>
     </g>
    </g>
    <g id="xtick_7">
     <g id="line2d_13">
      <path d="M 364.579621 219.244495 
L 364.579621 26.8475 
" clip-path="url(#p2389ba098e)" style="fill: none; stroke: #cccccc; stroke-width: 0.8; stroke-linecap: round"/>
     </g>
     <g id="line2d_14"/>
     <g id="text_7">
      <!-- scene_snow_city -->
      <g style="fill: #262626" transform="translate(282.014506 271.882485) rotate(-27) scale(0.12 -0.12)">
       <use xlink:href="#ArialMT-73"/>
       <use xlink:href="#ArialMT-63" transform="translate(50 0)"/>
       <use xlink:href="#ArialMT-65" transform="translate(100 0)"/>
       <use xlink:href="#ArialMT-6e" transform="translate(155.615234 0)"/>
       <use xlink:href="#ArialMT-65" transform="translate(211.230469 0)"/>
       <use xlink:href="#ArialMT-5f" transform="translate(266.845703 0)"/>
       <use xlink:href="#ArialMT-73" transform="translate(322.460938 0)"/>
       <use xlink:href="#ArialMT-6e" transform="translate(372.460938 0)"/>
       <use xlink:href="#ArialMT-6f" transform="translate(428.076172 0)"/>
       <use xlink:href="#ArialMT-77" transform="translate(483.691406 0)"/>
       <use xlink:href="#ArialMT-5f" transform="translate(555.908203 0)"/>
       <use xlink:href="#ArialMT-63" transform="translate(611.523438 0)"/>
       <use xlink:href="#ArialMT-69" transform="translate(661.523438 0)"/>
       <use xlink:href="#ArialMT-74" transform="translate(683.740234 0)"/>
       <use xlink:href="#ArialMT-79" transform="translate(711.523438 0)"/>
      </g>
     </g>
    </g>
    <g id="xtick_8">
     <g id="line2d_15">
      <path d="M 408.938849 219.244495 
L 408.938849 26.8475 
" clip-path="url(#p2389ba098e)" style="fill: none; stroke: #cccccc; stroke-width: 0.8; stroke-linecap: round"/>
     </g>
     <g id="line2d_16"/>
     <g id="text_8">
      <!-- scene_terminal_area -->
      <g style="fill: #262626" transform="translate(308.012118 281.270725) rotate(-27) scale(0.12 -0.12)">
       <defs>
        <path id="ArialMT-6d" d="M 422 0 
L 422 3319 
L 925 3319 
L 925 2853 
Q 1081 3097 1340 3245 
Q 1600 3394 1931 3394 
Q 2300 3394 2536 3241 
Q 2772 3088 2869 2813 
Q 3263 3394 3894 3394 
Q 4388 3394 4653 3120 
Q 4919 2847 4919 2278 
L 4919 0 
L 4359 0 
L 4359 2091 
Q 4359 2428 4304 2576 
Q 4250 2725 4106 2815 
Q 3963 2906 3769 2906 
Q 3419 2906 3187 2673 
Q 2956 2441 2956 1928 
L 2956 0 
L 2394 0 
L 2394 2156 
Q 2394 2531 2256 2718 
Q 2119 2906 1806 2906 
Q 1569 2906 1367 2781 
Q 1166 2656 1075 2415 
Q 984 2175 984 1722 
L 984 0 
L 422 0 
z
" transform="scale(0.015625)"/>
       </defs>
       <use xlink:href="#ArialMT-73"/>
       <use xlink:href="#ArialMT-63" transform="translate(50 0)"/>
       <use xlink:href="#ArialMT-65" transform="translate(100 0)"/>
       <use xlink:href="#ArialMT-6e" transform="translate(155.615234 0)"/>
       <use xlink:href="#ArialMT-65" transform="translate(211.230469 0)"/>
       <use xlink:href="#ArialMT-5f" transform="translate(266.845703 0)"/>
       <use xlink:href="#ArialMT-74" transform="translate(322.460938 0)"/>
       <use xlink:href="#ArialMT-65" transform="translate(350.244141 0)"/>
       <use xlink:href="#ArialMT-72" transform="translate(405.859375 0)"/>
       <use xlink:href="#ArialMT-6d" transform="translate(439.160156 0)"/>
       <use xlink:href="#ArialMT-69" transform="translate(522.460938 0)"/>
       <use xlink:href="#ArialMT-6e" transform="translate(544.677734 0)"/>
       <use xlink:href="#ArialMT-61" transform="translate(600.292969 0)"/>
       <use xlink:href="#ArialMT-6c" transform="translate(655.908203 0)"/>
       <use xlink:href="#ArialMT-5f" transform="translate(678.125 0)"/>
       <use xlink:href="#ArialMT-61" transform="translate(733.740234 0)"/>
       <use xlink:href="#ArialMT-72" transform="translate(789.355469 0)"/>
       <use xlink:href="#ArialMT-65" transform="translate(822.65625 0)"/>
       <use xlink:href="#ArialMT-61" transform="translate(878.271484 0)"/>
      </g>
     </g>
    </g>
    <g id="xtick_9">
     <g id="line2d_17">
      <path d="M 453.298076 219.244495 
L 453.298076 26.8475 
" clip-path="url(#p2389ba098e)" style="fill: none; stroke: #cccccc; stroke-width: 0.8; stroke-linecap: round"/>
     </g>
     <g id="line2d_18"/>
     <g id="text_9">
      <!-- scene_twilight -->
      <g style="fill: #262626" transform="translate(384.995191 264.615516) rotate(-27) scale(0.12 -0.12)">
       <use xlink:href="#ArialMT-73"/>
       <use xlink:href="#ArialMT-63" transform="translate(50 0)"/>
       <use xlink:href="#ArialMT-65" transform="translate(100 0)"/>
       <use xlink:href="#ArialMT-6e" transform="translate(155.615234 0)"/>
       <use xlink:href="#ArialMT-65" transform="translate(211.230469 0)"/>
       <use xlink:href="#ArialMT-5f" transform="translate(266.845703 0)"/>
       <use xlink:href="#ArialMT-74" transform="translate(322.460938 0)"/>
       <use xlink:href="#ArialMT-77" transform="translate(350.244141 0)"/>
       <use xlink:href="#ArialMT-69" transform="translate(422.460938 0)"/>
       <use xlink:href="#ArialMT-6c" transform="translate(444.677734 0)"/>
       <use xlink:href="#ArialMT-69" transform="translate(466.894531 0)"/>
       <use xlink:href="#ArialMT-67" transform="translate(489.111328 0)"/>
       <use xlink:href="#ArialMT-68" transform="translate(544.726562 0)"/>
       <use xlink:href="#ArialMT-74" transform="translate(600.341797 0)"/>
      </g>
     </g>
    </g>
    <g id="text_10">
     <!-- Scene -->
     <g style="fill: #262626" transform="translate(254.596322 299.779795) scale(0.15 -0.15)">
      <defs>
       <path id="ArialMT-53" d="M 288 1472 
L 859 1522 
Q 900 1178 1048 958 
Q 1197 738 1509 602 
Q 1822 466 2213 466 
Q 2559 466 2825 569 
Q 3091 672 3220 851 
Q 3350 1031 3350 1244 
Q 3350 1459 3225 1620 
Q 3100 1781 2813 1891 
Q 2628 1963 1997 2114 
Q 1366 2266 1113 2400 
Q 784 2572 623 2826 
Q 463 3081 463 3397 
Q 463 3744 659 4045 
Q 856 4347 1234 4503 
Q 1613 4659 2075 4659 
Q 2584 4659 2973 4495 
Q 3363 4331 3572 4012 
Q 3781 3694 3797 3291 
L 3216 3247 
Q 3169 3681 2898 3903 
Q 2628 4125 2100 4125 
Q 1550 4125 1298 3923 
Q 1047 3722 1047 3438 
Q 1047 3191 1225 3031 
Q 1400 2872 2139 2705 
Q 2878 2538 3153 2413 
Q 3553 2228 3743 1945 
Q 3934 1663 3934 1294 
Q 3934 928 3725 604 
Q 3516 281 3123 101 
Q 2731 -78 2241 -78 
Q 1619 -78 1198 103 
Q 778 284 539 648 
Q 300 1013 288 1472 
z
" transform="scale(0.015625)"/>
      </defs>
      <use xlink:href="#ArialMT-53"/>
      <use xlink:href="#ArialMT-63" transform="translate(66.699219 0)"/>
      <use xlink:href="#ArialMT-65" transform="translate(116.699219 0)"/>
      <use xlink:href="#ArialMT-6e" transform="translate(172.314453 0)"/>
      <use xlink:href="#ArialMT-65" transform="translate(227.929688 0)"/>
     </g>
    </g>
   </g>
   <g id="matplotlib.axis_2">
    <g id="ytick_1">
     <g id="line2d_19">
      <path d="M 64.578165 219.244495 
L 487.144167 219.244495 
" clip-path="url(#p2389ba098e)" style="fill: none; stroke: #cccccc; stroke-width: 0.8; stroke-linecap: round"/>
     </g>
     <g id="line2d_20"/>
     <g id="text_11">
      <!-- 0.0 -->
      <g style="fill: #262626" transform="translate(47.178165 222.823401) scale(0.1 -0.1)">
       <defs>
        <path id="ArialMT-30" d="M 266 2259 
Q 266 3072 433 3567 
Q 600 4063 929 4331 
Q 1259 4600 1759 4600 
Q 2128 4600 2406 4451 
Q 2684 4303 2865 4023 
Q 3047 3744 3150 3342 
Q 3253 2941 3253 2259 
Q 3253 1453 3087 958 
Q 2922 463 2592 192 
Q 2263 -78 1759 -78 
Q 1097 -78 719 397 
Q 266 969 266 2259 
z
M 844 2259 
Q 844 1131 1108 757 
Q 1372 384 1759 384 
Q 2147 384 2411 759 
Q 2675 1134 2675 2259 
Q 2675 3391 2411 3762 
Q 2147 4134 1753 4134 
Q 1366 4134 1134 3806 
Q 844 3388 844 2259 
z
" transform="scale(0.015625)"/>
        <path id="ArialMT-2e" d="M 581 0 
L 581 641 
L 1222 641 
L 1222 0 
L 581 0 
z
" transform="scale(0.015625)"/>
       </defs>
       <use xlink:href="#ArialMT-30"/>
       <use xlink:href="#ArialMT-2e" transform="translate(55.615234 0)"/>
       <use xlink:href="#ArialMT-30" transform="translate(83.398438 0)"/>
      </g>
     </g>
    </g>
    <g id="ytick_2">
     <g id="line2d_21">
      <path d="M 64.578165 183.942294 
L 487.144167 183.942294 
" clip-path="url(#p2389ba098e)" style="fill: none; stroke: #cccccc; stroke-width: 0.8; stroke-linecap: round"/>
     </g>
     <g id="line2d_22"/>
     <g id="text_12">
      <!-- 0.2 -->
      <g style="fill: #262626" transform="translate(47.178165 187.5212) scale(0.1 -0.1)">
       <defs>
        <path id="ArialMT-32" d="M 3222 541 
L 3222 0 
L 194 0 
Q 188 203 259 391 
Q 375 700 629 1000 
Q 884 1300 1366 1694 
Q 2113 2306 2375 2664 
Q 2638 3022 2638 3341 
Q 2638 3675 2398 3904 
Q 2159 4134 1775 4134 
Q 1369 4134 1125 3890 
Q 881 3647 878 3216 
L 300 3275 
Q 359 3922 746 4261 
Q 1134 4600 1788 4600 
Q 2447 4600 2831 4234 
Q 3216 3869 3216 3328 
Q 3216 3053 3103 2787 
Q 2991 2522 2730 2228 
Q 2469 1934 1863 1422 
Q 1356 997 1212 845 
Q 1069 694 975 541 
L 3222 541 
z
" transform="scale(0.015625)"/>
       </defs>
       <use xlink:href="#ArialMT-30"/>
       <use xlink:href="#ArialMT-2e" transform="translate(55.615234 0)"/>
       <use xlink:href="#ArialMT-32" transform="translate(83.398438 0)"/>
      </g>
     </g>
    </g>
    <g id="ytick_3">
     <g id="line2d_23">
      <path d="M 64.578165 148.640093 
L 487.144167 148.640093 
" clip-path="url(#p2389ba098e)" style="fill: none; stroke: #cccccc; stroke-width: 0.8; stroke-linecap: round"/>
     </g>
     <g id="line2d_24"/>
     <g id="text_13">
      <!-- 0.4 -->
      <g style="fill: #262626" transform="translate(47.178165 152.219) scale(0.1 -0.1)">
       <defs>
        <path id="ArialMT-34" d="M 2069 0 
L 2069 1097 
L 81 1097 
L 81 1613 
L 2172 4581 
L 2631 4581 
L 2631 1613 
L 3250 1613 
L 3250 1097 
L 2631 1097 
L 2631 0 
L 2069 0 
z
M 2069 1613 
L 2069 3678 
L 634 1613 
L 2069 1613 
z
" transform="scale(0.015625)"/>
       </defs>
       <use xlink:href="#ArialMT-30"/>
       <use xlink:href="#ArialMT-2e" transform="translate(55.615234 0)"/>
       <use xlink:href="#ArialMT-34" transform="translate(83.398438 0)"/>
      </g>
     </g>
    </g>
    <g id="ytick_4">
     <g id="line2d_25">
      <path d="M 64.578165 113.337892 
L 487.144167 113.337892 
" clip-path="url(#p2389ba098e)" style="fill: none; stroke: #cccccc; stroke-width: 0.8; stroke-linecap: round"/>
     </g>
     <g id="line2d_26"/>
     <g id="text_14">
      <!-- 0.6 -->
      <g style="fill: #262626" transform="translate(47.178165 116.916799) scale(0.1 -0.1)">
       <defs>
        <path id="ArialMT-36" d="M 3184 3459 
L 2625 3416 
Q 2550 3747 2413 3897 
Q 2184 4138 1850 4138 
Q 1581 4138 1378 3988 
Q 1113 3794 959 3422 
Q 806 3050 800 2363 
Q 1003 2672 1297 2822 
Q 1591 2972 1913 2972 
Q 2475 2972 2870 2558 
Q 3266 2144 3266 1488 
Q 3266 1056 3080 686 
Q 2894 316 2569 119 
Q 2244 -78 1831 -78 
Q 1128 -78 684 439 
Q 241 956 241 2144 
Q 241 3472 731 4075 
Q 1159 4600 1884 4600 
Q 2425 4600 2770 4297 
Q 3116 3994 3184 3459 
z
M 888 1484 
Q 888 1194 1011 928 
Q 1134 663 1356 523 
Q 1578 384 1822 384 
Q 2178 384 2434 671 
Q 2691 959 2691 1453 
Q 2691 1928 2437 2201 
Q 2184 2475 1800 2475 
Q 1419 2475 1153 2201 
Q 888 1928 888 1484 
z
" transform="scale(0.015625)"/>
       </defs>
       <use xlink:href="#ArialMT-30"/>
       <use xlink:href="#ArialMT-2e" transform="translate(55.615234 0)"/>
       <use xlink:href="#ArialMT-36" transform="translate(83.398438 0)"/>
      </g>
     </g>
    </g>
    <g id="ytick_5">
     <g id="line2d_27">
      <path d="M 64.578165 78.035691 
L 487.144167 78.035691 
" clip-path="url(#p2389ba098e)" style="fill: none; stroke: #cccccc; stroke-width: 0.8; stroke-linecap: round"/>
     </g>
     <g id="line2d_28"/>
     <g id="text_15">
      <!-- 0.8 -->
      <g style="fill: #262626" transform="translate(47.178165 81.614598) scale(0.1 -0.1)">
       <defs>
        <path id="ArialMT-38" d="M 1131 2484 
Q 781 2613 612 2850 
Q 444 3088 444 3419 
Q 444 3919 803 4259 
Q 1163 4600 1759 4600 
Q 2359 4600 2725 4251 
Q 3091 3903 3091 3403 
Q 3091 3084 2923 2848 
Q 2756 2613 2416 2484 
Q 2838 2347 3058 2040 
Q 3278 1734 3278 1309 
Q 3278 722 2862 322 
Q 2447 -78 1769 -78 
Q 1091 -78 675 323 
Q 259 725 259 1325 
Q 259 1772 486 2073 
Q 713 2375 1131 2484 
z
M 1019 3438 
Q 1019 3113 1228 2906 
Q 1438 2700 1772 2700 
Q 2097 2700 2305 2904 
Q 2513 3109 2513 3406 
Q 2513 3716 2298 3927 
Q 2084 4138 1766 4138 
Q 1444 4138 1231 3931 
Q 1019 3725 1019 3438 
z
M 838 1322 
Q 838 1081 952 856 
Q 1066 631 1291 507 
Q 1516 384 1775 384 
Q 2178 384 2440 643 
Q 2703 903 2703 1303 
Q 2703 1709 2433 1975 
Q 2163 2241 1756 2241 
Q 1359 2241 1098 1978 
Q 838 1716 838 1322 
z
" transform="scale(0.015625)"/>
       </defs>
       <use xlink:href="#ArialMT-30"/>
       <use xlink:href="#ArialMT-2e" transform="translate(55.615234 0)"/>
       <use xlink:href="#ArialMT-38" transform="translate(83.398438 0)"/>
      </g>
     </g>
    </g>
    <g id="ytick_6">
     <g id="line2d_29">
      <path d="M 64.578165 42.73349 
L 487.144167 42.73349 
" clip-path="url(#p2389ba098e)" style="fill: none; stroke: #cccccc; stroke-width: 0.8; stroke-linecap: round"/>
     </g>
     <g id="line2d_30"/>
     <g id="text_16">
      <!-- 1.0 -->
      <g style="fill: #262626" transform="translate(47.178165 46.312397) scale(0.1 -0.1)">
       <defs>
        <path id="ArialMT-31" d="M 2384 0 
L 1822 0 
L 1822 3584 
Q 1619 3391 1289 3197 
Q 959 3003 697 2906 
L 697 3450 
Q 1169 3672 1522 3987 
Q 1875 4303 2022 4600 
L 2384 4600 
L 2384 0 
z
" transform="scale(0.015625)"/>
       </defs>
       <use xlink:href="#ArialMT-31"/>
       <use xlink:href="#ArialMT-2e" transform="translate(55.615234 0)"/>
       <use xlink:href="#ArialMT-30" transform="translate(83.398438 0)"/>
      </g>
     </g>
    </g>
    <g id="text_17">
     <!-- Recall -->
     <g style="fill: #262626" transform="translate(40.196915 143.886623) rotate(-90) scale(0.15 -0.15)">
      <defs>
       <path id="ArialMT-52" d="M 503 0 
L 503 4581 
L 2534 4581 
Q 3147 4581 3465 4457 
Q 3784 4334 3975 4021 
Q 4166 3709 4166 3331 
Q 4166 2844 3850 2509 
Q 3534 2175 2875 2084 
Q 3116 1969 3241 1856 
Q 3506 1613 3744 1247 
L 4541 0 
L 3778 0 
L 3172 953 
Q 2906 1366 2734 1584 
Q 2563 1803 2427 1890 
Q 2291 1978 2150 2013 
Q 2047 2034 1813 2034 
L 1109 2034 
L 1109 0 
L 503 0 
z
M 1109 2559 
L 2413 2559 
Q 2828 2559 3062 2645 
Q 3297 2731 3419 2920 
Q 3541 3109 3541 3331 
Q 3541 3656 3305 3865 
Q 3069 4075 2559 4075 
L 1109 4075 
L 1109 2559 
z
" transform="scale(0.015625)"/>
      </defs>
      <use xlink:href="#ArialMT-52"/>
      <use xlink:href="#ArialMT-65" transform="translate(72.216797 0)"/>
      <use xlink:href="#ArialMT-63" transform="translate(127.832031 0)"/>
      <use xlink:href="#ArialMT-61" transform="translate(177.832031 0)"/>
      <use xlink:href="#ArialMT-6c" transform="translate(233.447266 0)"/>
      <use xlink:href="#ArialMT-6c" transform="translate(255.664062 0)"/>
     </g>
    </g>
   </g>
   <g id="patch_3">
    <path d="M 83.78571 219.244495 
L 93.54474 219.244495 
L 93.54474 61.919469 
L 83.78571 61.919469 
z
" clip-path="url(#p2389ba098e)" style="fill: #a6badf; opacity: 0.93"/>
   </g>
   <g id="patch_4">
    <path d="M 128.144938 219.244495 
L 137.903968 219.244495 
L 137.903968 85.266263 
L 128.144938 85.266263 
z
" clip-path="url(#p2389ba098e)" style="fill: #a6badf; opacity: 0.93"/>
   </g>
   <g id="patch_5">
    <path d="M 172.504166 219.244495 
L 182.263196 219.244495 
L 182.263196 109.415426 
L 172.504166 109.415426 
z
" clip-path="url(#p2389ba098e)" style="fill: #a6badf; opacity: 0.93"/>
   </g>
   <g id="patch_6">
    <path d="M 216.863393 219.244495 
L 226.622423 219.244495 
L 226.622423 105.366428 
L 216.863393 105.366428 
z
" clip-path="url(#p2389ba098e)" style="fill: #a6badf; opacity: 0.93"/>
   </g>
   <g id="patch_7">
    <path d="M 261.222621 219.244495 
L 270.981651 219.244495 
L 270.981651 61.919469 
L 261.222621 61.919469 
z
" clip-path="url(#p2389ba098e)" style="fill: #a6badf; opacity: 0.93"/>
   </g>
   <g id="patch_8">
    <path d="M 305.581848 219.244495 
L 315.340878 219.244495 
L 315.340878 107.906784 
L 305.581848 107.906784 
z
" clip-path="url(#p2389ba098e)" style="fill: #a6badf; opacity: 0.93"/>
   </g>
   <g id="patch_9">
    <path d="M 349.941076 219.244495 
L 359.700106 219.244495 
L 359.700106 44.123341 
L 349.941076 44.123341 
z
" clip-path="url(#p2389ba098e)" style="fill: #a6badf; opacity: 0.93"/>
   </g>
   <g id="patch_10">
    <path d="M 394.300304 219.244495 
L 404.059334 219.244495 
L 404.059334 47.636574 
L 394.300304 47.636574 
z
" clip-path="url(#p2389ba098e)" style="fill: #a6badf; opacity: 0.93"/>
   </g>
   <g id="patch_11">
    <path d="M 438.659531 219.244495 
L 448.418561 219.244495 
L 448.418561 85.266263 
L 438.659531 85.266263 
z
" clip-path="url(#p2389ba098e)" style="fill: #a6badf; opacity: 0.93"/>
   </g>
   <g id="patch_12">
    <path d="M 93.54474 219.244495 
L 103.30377 219.244495 
L 103.30377 144.419178 
L 93.54474 144.419178 
z
" clip-path="url(#p2389ba098e)" style="fill: #4675b0; opacity: 0.93"/>
   </g>
   <g id="patch_13">
    <path d="M 137.903968 219.244495 
L 147.662998 219.244495 
L 147.662998 165.015211 
L 137.903968 165.015211 
z
" clip-path="url(#p2389ba098e)" style="fill: #4675b0; opacity: 0.93"/>
   </g>
   <g id="patch_14">
    <path d="M 182.263196 219.244495 
L 192.022226 219.244495 
L 192.022226 151.255071 
L 182.263196 151.255071 
z
" clip-path="url(#p2389ba098e)" style="fill: #4675b0; opacity: 0.93"/>
   </g>
   <g id="patch_15">
    <path d="M 226.622423 219.244495 
L 236.381453 219.244495 
L 236.381453 173.693268 
L 226.622423 173.693268 
z
" clip-path="url(#p2389ba098e)" style="fill: #4675b0; opacity: 0.93"/>
   </g>
   <g id="patch_16">
    <path d="M 270.981651 219.244495 
L 280.740681 219.244495 
L 280.740681 144.419178 
L 270.981651 144.419178 
z
" clip-path="url(#p2389ba098e)" style="fill: #4675b0; opacity: 0.93"/>
   </g>
   <g id="patch_17">
    <path d="M 315.340878 219.244495 
L 325.099908 219.244495 
L 325.099908 145.924539 
L 315.340878 145.924539 
z
" clip-path="url(#p2389ba098e)" style="fill: #4675b0; opacity: 0.93"/>
   </g>
   <g id="patch_18">
    <path d="M 359.700106 219.244495 
L 369.459136 219.244495 
L 369.459136 119.175264 
L 359.700106 119.175264 
z
" clip-path="url(#p2389ba098e)" style="fill: #4675b0; opacity: 0.93"/>
   </g>
   <g id="patch_19">
    <path d="M 404.059334 219.244495 
L 413.818364 219.244495 
L 413.818364 89.312783 
L 404.059334 89.312783 
z
" clip-path="url(#p2389ba098e)" style="fill: #4675b0; opacity: 0.93"/>
   </g>
   <g id="patch_20">
    <path d="M 448.418561 219.244495 
L 458.177591 219.244495 
L 458.177591 165.015211 
L 448.418561 165.015211 
z
" clip-path="url(#p2389ba098e)" style="fill: #4675b0; opacity: 0.93"/>
   </g>
   <g id="patch_21">
    <path d="M 103.30377 219.244495 
L 113.062801 219.244495 
L 113.062801 57.122975 
L 103.30377 57.122975 
z
" clip-path="url(#p2389ba098e)" style="fill: #28437d; opacity: 0.93"/>
   </g>
   <g id="patch_22">
    <path d="M 147.662998 219.244495 
L 157.422028 219.244495 
L 157.422028 81.012985 
L 147.662998 81.012985 
z
" clip-path="url(#p2389ba098e)" style="fill: #28437d; opacity: 0.93"/>
   </g>
   <g id="patch_23">
    <path d="M 192.022226 219.244495 
L 201.781256 219.244495 
L 201.781256 100.263003 
L 192.022226 100.263003 
z
" clip-path="url(#p2389ba098e)" style="fill: #28437d; opacity: 0.93"/>
   </g>
   <g id="patch_24">
    <path d="M 236.381453 219.244495 
L 246.140483 219.244495 
L 246.140483 93.978621 
L 236.381453 93.978621 
z
" clip-path="url(#p2389ba098e)" style="fill: #28437d; opacity: 0.93"/>
   </g>
   <g id="patch_25">
    <path d="M 280.740681 219.244495 
L 290.499711 219.244495 
L 290.499711 57.122975 
L 280.740681 57.122975 
z
" clip-path="url(#p2389ba098e)" style="fill: #28437d; opacity: 0.93"/>
   </g>
   <g id="patch_26">
    <path d="M 325.099908 219.244495 
L 334.858939 219.244495 
L 334.858939 97.044569 
L 325.099908 97.044569 
z
" clip-path="url(#p2389ba098e)" style="fill: #28437d; opacity: 0.93"/>
   </g>
   <g id="patch_27">
    <path d="M 369.459136 219.244495 
L 379.218166 219.244495 
L 379.218166 44.123341 
L 369.459136 44.123341 
z
" clip-path="url(#p2389ba098e)" style="fill: #28437d; opacity: 0.93"/>
   </g>
   <g id="patch_28">
    <path d="M 413.818364 219.244495 
L 423.577394 219.244495 
L 423.577394 42.73349 
L 413.818364 42.73349 
z
" clip-path="url(#p2389ba098e)" style="fill: #28437d; opacity: 0.93"/>
   </g>
   <g id="patch_29">
    <path d="M 458.177591 219.244495 
L 467.936621 219.244495 
L 467.936621 81.012985 
L 458.177591 81.012985 
z
" clip-path="url(#p2389ba098e)" style="fill: #28437d; opacity: 0.93"/>
   </g>
   <g id="patch_30">
    <path d="M 64.578165 219.244495 
L 64.578165 26.8475 
" style="fill: none; stroke: #cccccc; stroke-linejoin: miter; stroke-linecap: square"/>
   </g>
   <g id="patch_31">
    <path d="M 64.578165 219.244495 
L 487.144167 219.244495 
" style="fill: none; stroke: #cccccc; stroke-linejoin: miter; stroke-linecap: square"/>
   </g>
   <g id="text_18">
    <!-- 0.89 -->
    <g style="fill: #303033" transform="translate(78.934757 57.8279) scale(0.1 -0.1)">
     <defs>
      <path id="Arial-BoldMT-30" d="M 1756 4600 
Q 2422 4600 2797 4125 
Q 3244 3563 3244 2259 
Q 3244 959 2794 391 
Q 2422 -78 1756 -78 
Q 1088 -78 678 436 
Q 269 950 269 2269 
Q 269 3563 719 4131 
Q 1091 4600 1756 4600 
z
M 1756 3872 
Q 1597 3872 1472 3770 
Q 1347 3669 1278 3406 
Q 1188 3066 1188 2259 
Q 1188 1453 1269 1151 
Q 1350 850 1473 750 
Q 1597 650 1756 650 
Q 1916 650 2041 751 
Q 2166 853 2234 1116 
Q 2325 1453 2325 2259 
Q 2325 3066 2244 3367 
Q 2163 3669 2039 3770 
Q 1916 3872 1756 3872 
z
" transform="scale(0.015625)"/>
      <path id="Arial-BoldMT-2e" d="M 459 0 
L 459 878 
L 1338 878 
L 1338 0 
L 459 0 
z
" transform="scale(0.015625)"/>
      <path id="Arial-BoldMT-38" d="M 1025 2472 
Q 684 2616 529 2867 
Q 375 3119 375 3419 
Q 375 3931 733 4265 
Q 1091 4600 1750 4600 
Q 2403 4600 2764 4265 
Q 3125 3931 3125 3419 
Q 3125 3100 2959 2851 
Q 2794 2603 2494 2472 
Q 2875 2319 3073 2025 
Q 3272 1731 3272 1347 
Q 3272 713 2867 316 
Q 2463 -81 1791 -81 
Q 1166 -81 750 247 
Q 259 634 259 1309 
Q 259 1681 443 1992 
Q 628 2303 1025 2472 
z
M 1206 3356 
Q 1206 3094 1354 2947 
Q 1503 2800 1750 2800 
Q 2000 2800 2150 2948 
Q 2300 3097 2300 3359 
Q 2300 3606 2151 3754 
Q 2003 3903 1759 3903 
Q 1506 3903 1356 3753 
Q 1206 3603 1206 3356 
z
M 1125 1394 
Q 1125 1031 1311 828 
Q 1497 625 1775 625 
Q 2047 625 2225 820 
Q 2403 1016 2403 1384 
Q 2403 1706 2222 1901 
Q 2041 2097 1763 2097 
Q 1441 2097 1283 1875 
Q 1125 1653 1125 1394 
z
" transform="scale(0.015625)"/>
      <path id="Arial-BoldMT-39" d="M 291 1059 
L 1141 1153 
Q 1172 894 1303 769 
Q 1434 644 1650 644 
Q 1922 644 2112 894 
Q 2303 1144 2356 1931 
Q 2025 1547 1528 1547 
Q 988 1547 595 1964 
Q 203 2381 203 3050 
Q 203 3747 617 4173 
Q 1031 4600 1672 4600 
Q 2369 4600 2816 4061 
Q 3263 3522 3263 2288 
Q 3263 1031 2797 475 
Q 2331 -81 1584 -81 
Q 1047 -81 715 205 
Q 384 491 291 1059 
z
M 2278 2978 
Q 2278 3403 2083 3637 
Q 1888 3872 1631 3872 
Q 1388 3872 1227 3680 
Q 1066 3488 1066 3050 
Q 1066 2606 1241 2398 
Q 1416 2191 1678 2191 
Q 1931 2191 2104 2391 
Q 2278 2591 2278 2978 
z
" transform="scale(0.015625)"/>
     </defs>
     <use xlink:href="#Arial-BoldMT-30"/>
     <use xlink:href="#Arial-BoldMT-2e" transform="translate(55.615234 0)"/>
     <use xlink:href="#Arial-BoldMT-38" transform="translate(83.398438 0)"/>
     <use xlink:href="#Arial-BoldMT-39" transform="translate(139.013672 0)"/>
    </g>
   </g>
   <g id="text_19">
    <!-- 0.76 -->
    <g style="fill: #303033" transform="translate(123.293984 81.174693) scale(0.1 -0.1)">
     <defs>
      <path id="Arial-BoldMT-37" d="M 272 3703 
L 272 4519 
L 3275 4519 
L 3275 3881 
Q 2903 3516 2518 2831 
Q 2134 2147 1932 1376 
Q 1731 606 1734 0 
L 888 0 
Q 909 950 1279 1937 
Q 1650 2925 2269 3703 
L 272 3703 
z
" transform="scale(0.015625)"/>
      <path id="Arial-BoldMT-36" d="M 3247 3459 
L 2397 3366 
Q 2366 3628 2234 3753 
Q 2103 3878 1894 3878 
Q 1616 3878 1423 3628 
Q 1231 3378 1181 2588 
Q 1509 2975 1997 2975 
Q 2547 2975 2939 2556 
Q 3331 2138 3331 1475 
Q 3331 772 2918 347 
Q 2506 -78 1859 -78 
Q 1166 -78 719 461 
Q 272 1000 272 2228 
Q 272 3488 737 4044 
Q 1203 4600 1947 4600 
Q 2469 4600 2811 4308 
Q 3153 4016 3247 3459 
z
M 1256 1544 
Q 1256 1116 1453 883 
Q 1650 650 1903 650 
Q 2147 650 2309 840 
Q 2472 1031 2472 1466 
Q 2472 1913 2297 2120 
Q 2122 2328 1859 2328 
Q 1606 2328 1431 2129 
Q 1256 1931 1256 1544 
z
" transform="scale(0.015625)"/>
     </defs>
     <use xlink:href="#Arial-BoldMT-30"/>
     <use xlink:href="#Arial-BoldMT-2e" transform="translate(55.615234 0)"/>
     <use xlink:href="#Arial-BoldMT-37" transform="translate(83.398438 0)"/>
     <use xlink:href="#Arial-BoldMT-36" transform="translate(139.013672 0)"/>
    </g>
   </g>
   <g id="text_20">
    <!-- 0.62 -->
    <g style="fill: #303033" transform="translate(167.653212 105.323856) scale(0.1 -0.1)">
     <defs>
      <path id="Arial-BoldMT-32" d="M 3238 816 
L 3238 0 
L 159 0 
Q 209 463 459 877 
Q 709 1291 1447 1975 
Q 2041 2528 2175 2725 
Q 2356 2997 2356 3263 
Q 2356 3556 2198 3714 
Q 2041 3872 1763 3872 
Q 1488 3872 1325 3706 
Q 1163 3541 1138 3156 
L 263 3244 
Q 341 3969 753 4284 
Q 1166 4600 1784 4600 
Q 2463 4600 2850 4234 
Q 3238 3869 3238 3325 
Q 3238 3016 3127 2736 
Q 3016 2456 2775 2150 
Q 2616 1947 2200 1565 
Q 1784 1184 1673 1059 
Q 1563 934 1494 816 
L 3238 816 
z
" transform="scale(0.015625)"/>
     </defs>
     <use xlink:href="#Arial-BoldMT-30"/>
     <use xlink:href="#Arial-BoldMT-2e" transform="translate(55.615234 0)"/>
     <use xlink:href="#Arial-BoldMT-36" transform="translate(83.398438 0)"/>
     <use xlink:href="#Arial-BoldMT-32" transform="translate(139.013672 0)"/>
    </g>
   </g>
   <g id="text_21">
    <!-- 0.65 -->
    <g style="fill: #303033" transform="translate(212.012439 101.274858) scale(0.1 -0.1)">
     <defs>
      <path id="Arial-BoldMT-35" d="M 284 1178 
L 1159 1269 
Q 1197 972 1381 798 
Q 1566 625 1806 625 
Q 2081 625 2272 848 
Q 2463 1072 2463 1522 
Q 2463 1944 2273 2155 
Q 2084 2366 1781 2366 
Q 1403 2366 1103 2031 
L 391 2134 
L 841 4519 
L 3163 4519 
L 3163 3697 
L 1506 3697 
L 1369 2919 
Q 1663 3066 1969 3066 
Q 2553 3066 2959 2641 
Q 3366 2216 3366 1538 
Q 3366 972 3038 528 
Q 2591 -78 1797 -78 
Q 1163 -78 763 262 
Q 363 603 284 1178 
z
" transform="scale(0.015625)"/>
     </defs>
     <use xlink:href="#Arial-BoldMT-30"/>
     <use xlink:href="#Arial-BoldMT-2e" transform="translate(55.615234 0)"/>
     <use xlink:href="#Arial-BoldMT-36" transform="translate(83.398438 0)"/>
     <use xlink:href="#Arial-BoldMT-35" transform="translate(139.013672 0)"/>
    </g>
   </g>
   <g id="text_22">
    <!-- 0.89 -->
    <g style="fill: #303033" transform="translate(256.371667 57.8279) scale(0.1 -0.1)">
     <use xlink:href="#Arial-BoldMT-30"/>
     <use xlink:href="#Arial-BoldMT-2e" transform="translate(55.615234 0)"/>
     <use xlink:href="#Arial-BoldMT-38" transform="translate(83.398438 0)"/>
     <use xlink:href="#Arial-BoldMT-39" transform="translate(139.013672 0)"/>
    </g>
   </g>
   <g id="text_23">
    <!-- 0.63 -->
    <g style="fill: #303033" transform="translate(300.730895 103.815215) scale(0.1 -0.1)">
     <defs>
      <path id="Arial-BoldMT-33" d="M 241 1216 
L 1091 1319 
Q 1131 994 1309 822 
Q 1488 650 1741 650 
Q 2013 650 2198 856 
Q 2384 1063 2384 1413 
Q 2384 1744 2206 1937 
Q 2028 2131 1772 2131 
Q 1603 2131 1369 2066 
L 1466 2781 
Q 1822 2772 2009 2936 
Q 2197 3100 2197 3372 
Q 2197 3603 2059 3740 
Q 1922 3878 1694 3878 
Q 1469 3878 1309 3722 
Q 1150 3566 1116 3266 
L 306 3403 
Q 391 3819 561 4067 
Q 731 4316 1036 4458 
Q 1341 4600 1719 4600 
Q 2366 4600 2756 4188 
Q 3078 3850 3078 3425 
Q 3078 2822 2419 2463 
Q 2813 2378 3048 2084 
Q 3284 1791 3284 1375 
Q 3284 772 2843 347 
Q 2403 -78 1747 -78 
Q 1125 -78 715 280 
Q 306 638 241 1216 
z
" transform="scale(0.015625)"/>
     </defs>
     <use xlink:href="#Arial-BoldMT-30"/>
     <use xlink:href="#Arial-BoldMT-2e" transform="translate(55.615234 0)"/>
     <use xlink:href="#Arial-BoldMT-36" transform="translate(83.398438 0)"/>
     <use xlink:href="#Arial-BoldMT-33" transform="translate(139.013672 0)"/>
    </g>
   </g>
   <g id="text_24">
    <!-- 0.99 -->
    <g style="fill: #303033" transform="translate(345.090122 40.031771) scale(0.1 -0.1)">
     <use xlink:href="#Arial-BoldMT-30"/>
     <use xlink:href="#Arial-BoldMT-2e" transform="translate(55.615234 0)"/>
     <use xlink:href="#Arial-BoldMT-39" transform="translate(83.398438 0)"/>
     <use xlink:href="#Arial-BoldMT-39" transform="translate(139.013672 0)"/>
    </g>
   </g>
   <g id="text_25">
    <!-- 0.97 -->
    <g style="fill: #303033" transform="translate(389.44935 43.545004) scale(0.1 -0.1)">
     <use xlink:href="#Arial-BoldMT-30"/>
     <use xlink:href="#Arial-BoldMT-2e" transform="translate(55.615234 0)"/>
     <use xlink:href="#Arial-BoldMT-39" transform="translate(83.398438 0)"/>
     <use xlink:href="#Arial-BoldMT-37" transform="translate(139.013672 0)"/>
    </g>
   </g>
   <g id="text_26">
    <!-- 0.76 -->
    <g style="fill: #303033" transform="translate(433.808577 81.174693) scale(0.1 -0.1)">
     <use xlink:href="#Arial-BoldMT-30"/>
     <use xlink:href="#Arial-BoldMT-2e" transform="translate(55.615234 0)"/>
     <use xlink:href="#Arial-BoldMT-37" transform="translate(83.398438 0)"/>
     <use xlink:href="#Arial-BoldMT-36" transform="translate(139.013672 0)"/>
    </g>
   </g>
   <g id="text_27">
    <!-- 0.42 -->
    <g style="fill: #303033" transform="translate(88.693787 134.502745) scale(0.1 -0.1)">
     <defs>
      <path id="Arial-BoldMT-34" d="M 1994 0 
L 1994 922 
L 119 922 
L 119 1691 
L 2106 4600 
L 2844 4600 
L 2844 1694 
L 3413 1694 
L 3413 922 
L 2844 922 
L 2844 0 
L 1994 0 
z
M 1994 1694 
L 1994 3259 
L 941 1694 
L 1994 1694 
z
" transform="scale(0.015625)"/>
     </defs>
     <use xlink:href="#Arial-BoldMT-30"/>
     <use xlink:href="#Arial-BoldMT-2e" transform="translate(55.615234 0)"/>
     <use xlink:href="#Arial-BoldMT-34" transform="translate(83.398438 0)"/>
     <use xlink:href="#Arial-BoldMT-32" transform="translate(139.013672 0)"/>
    </g>
   </g>
   <g id="text_28">
    <!-- 0.31 -->
    <g style="fill: #303033" transform="translate(133.053014 155.098778) scale(0.1 -0.1)">
     <defs>
      <path id="Arial-BoldMT-31" d="M 2519 0 
L 1641 0 
L 1641 3309 
Q 1159 2859 506 2644 
L 506 3441 
Q 850 3553 1253 3867 
Q 1656 4181 1806 4600 
L 2519 4600 
L 2519 0 
z
" transform="scale(0.015625)"/>
     </defs>
     <use xlink:href="#Arial-BoldMT-30"/>
     <use xlink:href="#Arial-BoldMT-2e" transform="translate(55.615234 0)"/>
     <use xlink:href="#Arial-BoldMT-33" transform="translate(83.398438 0)"/>
     <use xlink:href="#Arial-BoldMT-31" transform="translate(139.013672 0)"/>
    </g>
   </g>
   <g id="text_29">
    <!-- 0.39 -->
    <g style="fill: #303033" transform="translate(177.412242 141.338638) scale(0.1 -0.1)">
     <use xlink:href="#Arial-BoldMT-30"/>
     <use xlink:href="#Arial-BoldMT-2e" transform="translate(55.615234 0)"/>
     <use xlink:href="#Arial-BoldMT-33" transform="translate(83.398438 0)"/>
     <use xlink:href="#Arial-BoldMT-39" transform="translate(139.013672 0)"/>
    </g>
   </g>
   <g id="text_30">
    <!-- 0.26 -->
    <g style="fill: #303033" transform="translate(221.771469 163.776835) scale(0.1 -0.1)">
     <use xlink:href="#Arial-BoldMT-30"/>
     <use xlink:href="#Arial-BoldMT-2e" transform="translate(55.615234 0)"/>
     <use xlink:href="#Arial-BoldMT-32" transform="translate(83.398438 0)"/>
     <use xlink:href="#Arial-BoldMT-36" transform="translate(139.013672 0)"/>
    </g>
   </g>
   <g id="text_31">
    <!-- 0.42 -->
    <g style="fill: #303033" transform="translate(266.130697 134.502745) scale(0.1 -0.1)">
     <use xlink:href="#Arial-BoldMT-30"/>
     <use xlink:href="#Arial-BoldMT-2e" transform="translate(55.615234 0)"/>
     <use xlink:href="#Arial-BoldMT-34" transform="translate(83.398438 0)"/>
     <use xlink:href="#Arial-BoldMT-32" transform="translate(139.013672 0)"/>
    </g>
   </g>
   <g id="text_32">
    <!-- 0.42 -->
    <g style="fill: #303033" transform="translate(310.489925 136.008107) scale(0.1 -0.1)">
     <use xlink:href="#Arial-BoldMT-30"/>
     <use xlink:href="#Arial-BoldMT-2e" transform="translate(55.615234 0)"/>
     <use xlink:href="#Arial-BoldMT-34" transform="translate(83.398438 0)"/>
     <use xlink:href="#Arial-BoldMT-32" transform="translate(139.013672 0)"/>
    </g>
   </g>
   <g id="text_33">
    <!-- 0.57 -->
    <g style="fill: #303033" transform="translate(354.849152 109.258831) scale(0.1 -0.1)">
     <use xlink:href="#Arial-BoldMT-30"/>
     <use xlink:href="#Arial-BoldMT-2e" transform="translate(55.615234 0)"/>
     <use xlink:href="#Arial-BoldMT-35" transform="translate(83.398438 0)"/>
     <use xlink:href="#Arial-BoldMT-37" transform="translate(139.013672 0)"/>
    </g>
   </g>
   <g id="text_34">
    <!-- 0.74 -->
    <g style="fill: #303033" transform="translate(399.20838 79.396351) scale(0.1 -0.1)">
     <use xlink:href="#Arial-BoldMT-30"/>
     <use xlink:href="#Arial-BoldMT-2e" transform="translate(55.615234 0)"/>
     <use xlink:href="#Arial-BoldMT-37" transform="translate(83.398438 0)"/>
     <use xlink:href="#Arial-BoldMT-34" transform="translate(139.013672 0)"/>
    </g>
   </g>
   <g id="text_35">
    <!-- 0.31 -->
    <g style="fill: #303033" transform="translate(443.567608 155.098778) scale(0.1 -0.1)">
     <use xlink:href="#Arial-BoldMT-30"/>
     <use xlink:href="#Arial-BoldMT-2e" transform="translate(55.615234 0)"/>
     <use xlink:href="#Arial-BoldMT-33" transform="translate(83.398438 0)"/>
     <use xlink:href="#Arial-BoldMT-31" transform="translate(139.013672 0)"/>
    </g>
   </g>
   <g id="text_36">
    <!-- 0.92 -->
    <g style="fill: #303033" transform="translate(98.452817 41.381679) scale(0.1 -0.1)">
     <use xlink:href="#Arial-BoldMT-30"/>
     <use xlink:href="#Arial-BoldMT-2e" transform="translate(55.615234 0)"/>
     <use xlink:href="#Arial-BoldMT-39" transform="translate(83.398438 0)"/>
     <use xlink:href="#Arial-BoldMT-32" transform="translate(139.013672 0)"/>
    </g>
   </g>
   <g id="text_37">
    <!-- 0.78 -->
    <g style="fill: #303033" transform="translate(142.812044 65.27169) scale(0.1 -0.1)">
     <use xlink:href="#Arial-BoldMT-30"/>
     <use xlink:href="#Arial-BoldMT-2e" transform="translate(55.615234 0)"/>
     <use xlink:href="#Arial-BoldMT-37" transform="translate(83.398438 0)"/>
     <use xlink:href="#Arial-BoldMT-38" transform="translate(139.013672 0)"/>
    </g>
   </g>
   <g id="text_38">
    <!-- 0.67 -->
    <g style="fill: #303033" transform="translate(187.171272 84.521707) scale(0.1 -0.1)">
     <use xlink:href="#Arial-BoldMT-30"/>
     <use xlink:href="#Arial-BoldMT-2e" transform="translate(55.615234 0)"/>
     <use xlink:href="#Arial-BoldMT-36" transform="translate(83.398438 0)"/>
     <use xlink:href="#Arial-BoldMT-37" transform="translate(139.013672 0)"/>
    </g>
   </g>
   <g id="text_39">
    <!-- 0.71 -->
    <g style="fill: #303033" transform="translate(231.5305 78.237325) scale(0.1 -0.1)">
     <use xlink:href="#Arial-BoldMT-30"/>
     <use xlink:href="#Arial-BoldMT-2e" transform="translate(55.615234 0)"/>
     <use xlink:href="#Arial-BoldMT-37" transform="translate(83.398438 0)"/>
     <use xlink:href="#Arial-BoldMT-31" transform="translate(139.013672 0)"/>
    </g>
   </g>
   <g id="text_40">
    <!-- 0.92 -->
    <g style="fill: #303033" transform="translate(275.889727 41.381679) scale(0.1 -0.1)">
     <use xlink:href="#Arial-BoldMT-30"/>
     <use xlink:href="#Arial-BoldMT-2e" transform="translate(55.615234 0)"/>
     <use xlink:href="#Arial-BoldMT-39" transform="translate(83.398438 0)"/>
     <use xlink:href="#Arial-BoldMT-32" transform="translate(139.013672 0)"/>
    </g>
   </g>
   <g id="text_41">
    <!-- 0.69 -->
    <g style="fill: #303033" transform="translate(320.248955 81.303273) scale(0.1 -0.1)">
     <use xlink:href="#Arial-BoldMT-30"/>
     <use xlink:href="#Arial-BoldMT-2e" transform="translate(55.615234 0)"/>
     <use xlink:href="#Arial-BoldMT-36" transform="translate(83.398438 0)"/>
     <use xlink:href="#Arial-BoldMT-39" transform="translate(139.013672 0)"/>
    </g>
   </g>
   <g id="text_42">
    <!-- 0.99 -->
    <g style="fill: #303033" transform="translate(364.608182 28.382045) scale(0.1 -0.1)">
     <use xlink:href="#Arial-BoldMT-30"/>
     <use xlink:href="#Arial-BoldMT-2e" transform="translate(55.615234 0)"/>
     <use xlink:href="#Arial-BoldMT-39" transform="translate(83.398438 0)"/>
     <use xlink:href="#Arial-BoldMT-39" transform="translate(139.013672 0)"/>
    </g>
   </g>
   <g id="text_43">
    <!-- 1.00 -->
    <g style="fill: #303033" transform="translate(408.96741 26.992195) scale(0.1 -0.1)">
     <use xlink:href="#Arial-BoldMT-31"/>
     <use xlink:href="#Arial-BoldMT-2e" transform="translate(55.615234 0)"/>
     <use xlink:href="#Arial-BoldMT-30" transform="translate(83.398438 0)"/>
     <use xlink:href="#Arial-BoldMT-30" transform="translate(139.013672 0)"/>
    </g>
   </g>
   <g id="text_44">
    <!-- 0.78 -->
    <g style="fill: #303033" transform="translate(453.326638 65.27169) scale(0.1 -0.1)">
     <use xlink:href="#Arial-BoldMT-30"/>
     <use xlink:href="#Arial-BoldMT-2e" transform="translate(55.615234 0)"/>
     <use xlink:href="#Arial-BoldMT-37" transform="translate(83.398438 0)"/>
     <use xlink:href="#Arial-BoldMT-38" transform="translate(139.013672 0)"/>
    </g>
   </g>
   <g id="text_45">
    <!-- Recall by Scene -->
    <g style="fill: #262626" transform="translate(218.054916 18.8475) scale(0.16 -0.16)">
     <defs>
      <path id="ArialMT-20" transform="scale(0.015625)"/>
     </defs>
     <use xlink:href="#ArialMT-52"/>
     <use xlink:href="#ArialMT-65" transform="translate(72.216797 0)"/>
     <use xlink:href="#ArialMT-63" transform="translate(127.832031 0)"/>
     <use xlink:href="#ArialMT-61" transform="translate(177.832031 0)"/>
     <use xlink:href="#ArialMT-6c" transform="translate(233.447266 0)"/>
     <use xlink:href="#ArialMT-6c" transform="translate(255.664062 0)"/>
     <use xlink:href="#ArialMT-20" transform="translate(277.880859 0)"/>
     <use xlink:href="#ArialMT-62" transform="translate(305.664062 0)"/>
     <use xlink:href="#ArialMT-79" transform="translate(361.279297 0)"/>
     <use xlink:href="#ArialMT-20" transform="translate(411.279297 0)"/>
     <use xlink:href="#ArialMT-53" transform="translate(439.0625 0)"/>
     <use xlink:href="#ArialMT-63" transform="translate(505.761719 0)"/>
     <use xlink:href="#ArialMT-65" transform="translate(555.761719 0)"/>
     <use xlink:href="#ArialMT-6e" transform="translate(611.376953 0)"/>
     <use xlink:href="#ArialMT-65" transform="translate(666.992188 0)"/>
    </g>
   </g>
   <g id="legend_1">
    <g id="patch_32">
     <path d="M 74.478165 176.038558 
L 96.478165 176.038558 
L 96.478165 168.338558 
L 74.478165 168.338558 
z
" style="fill: #a6badf; opacity: 0.93"/>
    </g>
    <g id="text_46">
     <!-- LiDAR -->
     <g style="fill: #262626" transform="translate(105.278165 176.038558) scale(0.11 -0.11)">
      <defs>
       <path id="ArialMT-4c" d="M 469 0 
L 469 4581 
L 1075 4581 
L 1075 541 
L 3331 541 
L 3331 0 
L 469 0 
z
" transform="scale(0.015625)"/>
       <path id="ArialMT-44" d="M 494 0 
L 494 4581 
L 2072 4581 
Q 2606 4581 2888 4516 
Q 3281 4425 3559 4188 
Q 3922 3881 4101 3404 
Q 4281 2928 4281 2316 
Q 4281 1794 4159 1391 
Q 4038 988 3847 723 
Q 3656 459 3429 307 
Q 3203 156 2883 78 
Q 2563 0 2147 0 
L 494 0 
z
M 1100 541 
L 2078 541 
Q 2531 541 2789 625 
Q 3047 709 3200 863 
Q 3416 1078 3536 1442 
Q 3656 1806 3656 2325 
Q 3656 3044 3420 3430 
Q 3184 3816 2847 3947 
Q 2603 4041 2063 4041 
L 1100 4041 
L 1100 541 
z
" transform="scale(0.015625)"/>
       <path id="ArialMT-41" d="M -9 0 
L 1750 4581 
L 2403 4581 
L 4278 0 
L 3588 0 
L 3053 1388 
L 1138 1388 
L 634 0 
L -9 0 
z
M 1313 1881 
L 2866 1881 
L 2388 3150 
Q 2169 3728 2063 4100 
Q 1975 3659 1816 3225 
L 1313 1881 
z
" transform="scale(0.015625)"/>
      </defs>
      <use xlink:href="#ArialMT-4c"/>
      <use xlink:href="#ArialMT-69" transform="translate(55.615234 0)"/>
      <use xlink:href="#ArialMT-44" transform="translate(77.832031 0)"/>
      <use xlink:href="#ArialMT-41" transform="translate(150.048828 0)"/>
      <use xlink:href="#ArialMT-52" transform="translate(216.748047 0)"/>
     </g>
    </g>
    <g id="patch_33">
     <path d="M 74.478165 191.598401 
L 96.478165 191.598401 
L 96.478165 183.898401 
L 74.478165 183.898401 
z
" style="fill: #4675b0; opacity: 0.93"/>
    </g>
    <g id="text_47">
     <!-- Radar -->
     <g style="fill: #262626" transform="translate(105.278165 191.598401) scale(0.11 -0.11)">
      <use xlink:href="#ArialMT-52"/>
      <use xlink:href="#ArialMT-61" transform="translate(72.216797 0)"/>
      <use xlink:href="#ArialMT-64" transform="translate(127.832031 0)"/>
      <use xlink:href="#ArialMT-61" transform="translate(183.447266 0)"/>
      <use xlink:href="#ArialMT-72" transform="translate(239.0625 0)"/>
     </g>
    </g>
    <g id="patch_34">
     <path d="M 74.478165 207.158245 
L 96.478165 207.158245 
L 96.478165 199.458245 
L 74.478165 199.458245 
z
" style="fill: #28437d; opacity: 0.93"/>
    </g>
    <g id="text_48">
     <!-- Fusion -->
     <g style="fill: #262626" transform="translate(105.278165 207.158245) scale(0.11 -0.11)">
      <defs>
       <path id="ArialMT-46" d="M 525 0 
L 525 4581 
L 3616 4581 
L 3616 4041 
L 1131 4041 
L 1131 2622 
L 3281 2622 
L 3281 2081 
L 1131 2081 
L 1131 0 
L 525 0 
z
" transform="scale(0.015625)"/>
      </defs>
      <use xlink:href="#ArialMT-46"/>
      <use xlink:href="#ArialMT-75" transform="translate(61.083984 0)"/>
      <use xlink:href="#ArialMT-73" transform="translate(116.699219 0)"/>
      <use xlink:href="#ArialMT-69" transform="translate(166.699219 0)"/>
      <use xlink:href="#ArialMT-6f" transform="translate(188.916016 0)"/>
      <use xlink:href="#ArialMT-6e" transform="translate(244.53125 0)"/>
     </g>
    </g>
   </g>
  </g>
 </g>
 <defs>
  <clipPath id="p2389ba098e">
   <rect x="64.578165" y="26.8475" width="422.566002" height="192.396995"/>
  </clipPath>
 </defs>
</svg>
